<?xml version="1.0" encoding="UTF-8"?>
<svg id="Layer_1" data-name="Layer 1" xmlns="http://www.w3.org/2000/svg" version="1.1" viewBox="0 0 24 24">
  <defs>
    <style>
      .cls-1 {
        fill: #000;
        stroke-width: 0px;
      }
    </style>
  </defs>
  <path class="cls-1" d="M12,2.2c3.2,0,3.6,0,4.9,0,3.3.1,4.8,1.7,4.9,4.9,0,1.3,0,1.6,0,4.8s0,3.6,0,4.8c-.1,3.2-1.7,4.8-4.9,4.9-1.3,0-1.6,0-4.9,0s-3.6,0-4.8,0c-3.3-.1-4.8-1.7-4.9-4.9,0-1.3,0-1.6,0-4.8s0-3.6,0-4.8c.1-3.2,1.7-4.8,4.9-4.9,1.3,0,1.6,0,4.8,0ZM12,0C8.7,0,8.3,0,7.1,0,2.7.3.3,2.7,0,7.1,0,8.3,0,8.7,0,12s0,3.7,0,4.9c.2,4.4,2.6,6.8,7,7,1.3,0,1.7,0,4.9,0s3.7,0,4.9,0c4.4-.2,6.8-2.6,7-7,0-1.3,0-1.7,0-4.9s0-3.7,0-4.9c-.2-4.4-2.6-6.8-7-7C15.7,0,15.3,0,12,0ZM12,5.8c-3.4,0-6.2,2.8-6.2,6.2s2.8,6.2,6.2,6.2,6.2-2.8,6.2-6.2-2.8-6.2-6.2-6.2ZM12,16c-2.2,0-4-1.8-4-4s1.8-4,4-4,4,1.8,4,4-1.8,4-4,4ZM18.4,4.2c-.8,0-1.4.6-1.4,1.4s.6,1.4,1.4,1.4,1.4-.6,1.4-1.4-.6-1.4-1.4-1.4Z"/>
</svg>